<svg xmlns="http://www.w3.org/2000/svg" width="800" height="600" viewBox="0 0 800 600"><rect x="0" y="0" width="800" height="600" fill="#091226" /> <g transform="translate(600 150)"><g transform="rotate(0)"><g transform="translate(0 -100)"><rect x="0" y="0" width="10" height="60" fill="#f77f00" /></g></g><g transform="rotate(30)"><g transform="translate(0 -100)"><rect x="0" y="0" width="10" height="60" fill="#f77f00" /></g></g><g transform="rotate(60)"><g transform="translate(0 -100)"><rect x="0" y="0" width="10" height="60" fill="#f77f00" /></g></g><g transform="rotate(90)"><g transform="translate(0 -100)"><rect x="0" y="0" width="10" height="60" fill="#f77f00" /></g></g><g transform="rotate(120)"><g transform="translate(0 -100)"><rect x="0" y="0" width="10" height="60" fill="#f77f00" /></g></g><g transform="rotate(150)"><g transform="translate(0 -100)"><rect x="0" y="0" width="10" height="60" fill="#f77f00" /></g></g><g transform="rotate(180)"><g transform="translate(0 -100)"><rect x="0" y="0" width="10" height="60" fill="#f77f00" /></g></g><g transform="rotate(210)"><g transform="translate(0 -100)"><rect x="0" y="0" width="10" height="60" fill="#f77f00" /></g></g><g transform="rotate(240)"><g transform="translate(0 -100)"><rect x="0" y="0" width="10" height="60" fill="#f77f00" /></g></g><g transform="rotate(270)"><g transform="translate(0 -100)"><rect x="0" y="0" width="10" height="60" fill="#f77f00" /></g></g><g transform="rotate(300)"><g transform="translate(0 -100)"><rect x="0" y="0" width="10" height="60" fill="#f77f00" /></g></g><g transform="rotate(330)"><g transform="translate(0 -100)"><rect x="0" y="0" width="10" height="60" fill="#f77f00" /></g></g><circle cx="0" cy="0" r="70" fill="#fcbf49" /></g><g transform="translate(80 250)"><g transform="translate(0 0)"><rect x="0" y="0" width="140" height="300" fill="#277da1" /><g transform="translate(0 0)"><rect x="20" y="20" width="100" height="60" fill="#2a9d8f" /></g><g transform="translate(0 90)"><rect x="20" y="20" width="100" height="60" fill="#2a9d8f" /></g><g transform="translate(0 180)"><rect x="20" y="20" width="100" height="60" fill="#2a9d8f" /></g></g><g transform="translate(170 0)"><rect x="0" y="0" width="140" height="300" fill="#277da1" /><g transform="translate(0 0)"><rect x="20" y="20" width="100" height="60" fill="#2a9d8f" /></g><g transform="translate(0 90)"><rect x="20" y="20" width="100" height="60" fill="#2a9d8f" /></g><g transform="translate(0 180)"><rect x="20" y="20" width="100" height="60" fill="#2a9d8f" /></g></g><g transform="translate(340 0)"><rect x="0" y="0" width="140" height="300" fill="#277da1" /><g transform="translate(0 0)"><rect x="20" y="20" width="100" height="60" fill="#2a9d8f" /></g><g transform="translate(0 90)"><rect x="20" y="20" width="100" height="60" fill="#2a9d8f" /></g><g transform="translate(0 180)"><rect x="20" y="20" width="100" height="60" fill="#2a9d8f" /></g></g><g transform="translate(510 0)"><rect x="0" y="0" width="140" height="300" fill="#277da1" /><g transform="translate(0 0)"><rect x="20" y="20" width="100" height="60" fill="#2a9d8f" /></g><g transform="translate(0 90)"><rect x="20" y="20" width="100" height="60" fill="#2a9d8f" /></g><g transform="translate(0 180)"><rect x="20" y="20" width="100" height="60" fill="#2a9d8f" /></g></g></g><line x1="0" y1="550" x2="800" y2="550" stroke="#ffffff" stroke-width="8" /><text x="400" y="80" font-size="36" fill="#ffffff" text-anchor="middle">CITY SUNSET</text></svg>